<?xml version="1.0" encoding="UTF-8"?>
<svg id="Capa_2" data-name="Capa 2" xmlns="http://www.w3.org/2000/svg" viewBox="0 0 338.32 58.86">
  <defs>
    <style>
      .cls-1 {
        stroke: #000;
        stroke-width: .5px;
      }

      .cls-1, .cls-2, .cls-3 {
        stroke-miterlimit: 10;
      }

      .cls-4 {
        fill: #d1830d;
      }

      .cls-2 {
        font-family: OverloveRegular, Overlove;
        font-size: 38px;
        letter-spacing: .07em;
        stroke: #1d1d1b;
      }

      .cls-3 {
        fill: #f5a204;
        stroke: #290d0e;
      }
    </style>
  </defs>
  <g id="Capa_11" data-name="Capa 11">
    <text class="cls-2" transform="translate(25.26 45.16)"><tspan x="0" y="0">BIENVENIDOS A MI CAPSULA </tspan></text>
    <g>
      <path class="cls-3" d="m29.46,14.05s-.4,2.07-2.81,3.39c-2.41,1.33-4.87,2.04-5.65,1.38-.78-.65-1.15-1.32-.96-2.83s-.14-2.93,1.39-3.47c1.53-.54,5.5-.39,6.81-.27,1.32.12,1.52.95,1.21,1.8Z"/>
      <path class="cls-4" d="m22.48,18.35c-.69-.6-1.01-1.21-.83-2.6s-.1-2.7,1.28-3.21c.76-.28,2.2-.38,3.52-.39-1.71-.05-3.94,0-5,.37-1.53.54-1.21,1.96-1.39,3.47-.19,1.51.18,2.18.96,2.83.65.55,2.48.14,4.47-.79-1.37.54-2.54.72-3,.32Z"/>
      <path class="cls-3" d="m30.11,14.73s1.15-10.22-4.14-12.76c-5.29-2.54-7.37-1.41-7.23.53.14,1.94,2.2,2.2,1.99,3.39-.21,1.18-2.34,3.81-.95,5.45,1.39,1.63,10.33,3.4,10.33,3.4Z"/>
      <path class="cls-4" d="m19.78,11.34c.29.34,1.18.57,1.99.91.06-.19-.25-.33-.53-.65-1.39-1.63.74-4.26.95-5.45.21-1.18-1.85-1.45-1.99-3.39-.09-1.23.69-1.85,2.63-1.71v-.13c-1.03-.27-1.83-.47-2.46-.37,0,0,0,0,0,0-.11.02-.22.04-.32.07,0,0,0,0,0,0-.1.03-.2.06-.28.1,0,0,0,0,0,0-.04.02-.09.04-.13.06,0,0,0,0,0,0-.08.04-.16.09-.23.14,0,0,0,0,0,0-.07.05-.13.1-.19.16,0,0,0,0-.01.01-.06.06-.11.11-.15.18,0,0,0,0,0,.01-.02.03-.04.06-.06.1,0,0,0,0,0,0-.02.03-.04.06-.05.1,0,0,0,.01,0,.02-.02.03-.03.07-.05.1,0,0,0,0,0,.01-.01.03-.02.06-.03.1,0,0,0,.01,0,.02-.01.04-.02.07-.03.11,0,0,0,.01,0,.02,0,.03-.01.07-.02.1,0,0,0,.01,0,.02,0,.04-.01.08-.02.11,0,0,0,.02,0,.03,0,.04,0,.07,0,.11,0,0,0,0,0,.01,0,.04,0,.08,0,.12,0,0,0,.02,0,.03,0,.04,0,.08,0,.12.02.24.07.46.14.65.03.1.08.19.12.28.02.04.05.09.07.13.1.17.21.32.33.45.18.21.38.38.57.55.12.11.24.22.35.33.03.03.05.05.08.08.25.27.41.55.34.92-.21,1.18-2.34,3.81-.95,5.45h0Z"/>
      <path class="cls-3" d="m29.04,14.4s-1.1,1.55-2.48,2.71c-1.83,1.53-3.58,2.62-3.11,1.64.44-.92,1.01-1.8,2.45-3.45,1.16-1.33,1.96-2.42,2.54-2.61.51-.17,1.04.3,1.17.49.13.18-.16.69-.57,1.22Z"/>
      <path class="cls-4" d="m24.49,17.7c.35-.77.8-1,1.98-2.41.98-1.17,1.67-2.14,2.17-2.33.26-.1.52-.01.71.11-.23-.19-.6-.39-.96-.27-.58.19-1.38,1.28-2.54,2.61-1.44,1.65-2.01,2.52-2.45,3.45-.39.82.8-.18,2.32-1.36-.91.65-1.48.75-1.23.21Z"/>
      <path class="cls-3" d="m28.4,15.43s6.05-7.39,6.95-10.13c.91-2.76.3-2.74-.65-1.61-1.02,1.21-1.01,1.95-1.68,2.66-.71.75-2.61,2.1-3.58,3.8-1.02,1.76-1.04,5.29-1.04,5.29Z"/>
      <path class="cls-4" d="m29.44,10.14c-.21.37-.15.87-.29,1.36.15-.15.1-.42.3-.77.96-1.69,2.85-3.07,3.55-3.83.67-.72.66-1.44,1.67-2.66.6-.73.78-1.03.81-.43l.05.05c.02-.12.21-.41.21-.51.02-.23.07-.23.02-.32h0s-.03-.04-.05-.05c0,0,0,0,0,0-.02-.01-.04-.02-.06-.02h0s-.02,0-.03,0c0,0,0,0,0,0-.02,0-.05,0-.08.01,0,0,0,0,0,0-.03,0-.06.02-.09.03,0,0,0,0,0,0-.03.02-.06.03-.09.06,0,0,0,0,0,0-.02.01-.03.02-.05.04,0,0,0,0,0,0-.02.01-.03.03-.05.04,0,0,0,0,0,0-.02.01-.03.03-.05.04,0,0,0,0,0,0-.02.01-.03.03-.05.04,0,0,0,0,0,0-.02.02-.04.03-.06.05,0,0,0,0-.01.01-.02.02-.03.03-.05.05,0,0,0,0,0,0-.02.02-.04.04-.06.06,0,0,0,0-.01.01-.02.02-.04.04-.06.06,0,0,0,0,0,0-.02.02-.04.05-.06.07,0,0,0,.01-.01.02-.02.02-.04.05-.06.07-.12.15-.23.29-.33.42-.05.07-.09.13-.14.2-.02.03-.04.07-.06.1-.08.13-.15.25-.22.37-.1.18-.18.34-.26.5-.05.1-.1.21-.15.3-.01.02-.03.05-.04.07-.13.24-.27.47-.49.69-.71.75-2.61,2.1-3.58,3.8h0Z"/>
      <g>
        <path class="cls-1" d="m29.04,16.23c-1.51,1.63-2.93,2.77-3.16,2.55-.24-.22.8-1.72,2.31-3.35,1.51-1.63,2.93-2.77,3.16-2.55.24.22-.8,1.72-2.31,3.35Z"/>
        <path class="cls-1" d="m31.64,13.42c-.28.3-.69.37-.93.15-.24-.22-.2-.64.08-.94.28-.3.69-.37.93-.15.24.22.2.64-.08.94Z"/>
        <path class="cls-1" d="m31.66,12.75s1.56-.08,1.82-.59.52-.46.33-.07c-.19.39-1.16.87-1.65.75-.49-.12-.63.11-.63.11l-.14-.28.26.08Z"/>
        <path class="cls-1" d="m31.44,12.7s1.3-.87,1.26-1.44.21-.66.25-.23c.04.43-.55,1.34-1.04,1.49-.48.15-.48.41-.48.41l-.26-.17.27-.06Z"/>
      </g>
    </g>
  </g>
</svg>